<mxfile host="app.diagrams.net" modified="2023-03-17T11:19:21.813Z" agent="5.0 (Macintosh; Intel Mac OS X 10_15_7) AppleWebKit/537.36 (KHTML, like Gecko) Chrome/111.0.0.0 Safari/537.36" etag="VvhmLUxHeaySa0DfExQm" version="20.8.23" type="github">
  <diagram id="prtHgNgQTEPvFCAcTncT" name="Page-1">
    <mxGraphModel dx="620" dy="1528" grid="0" gridSize="10" guides="1" tooltips="1" connect="1" arrows="1" fold="1" page="1" pageScale="1" pageWidth="827" pageHeight="1169" math="0" shadow="0">
      <root>
        <mxCell id="0" />
        <mxCell id="1" parent="0" />
        <mxCell id="rfeUKlEd_rAGPYUnDMAc-1" value="哈尔滨理工大学精品课" style="rounded=0;whiteSpace=wrap;html=1;" parent="1" vertex="1">
          <mxGeometry x="330" y="130" width="180" height="60" as="geometry" />
        </mxCell>
        <mxCell id="rfeUKlEd_rAGPYUnDMAc-6" value="课程" style="rounded=0;whiteSpace=wrap;html=1;" parent="1" vertex="1">
          <mxGeometry x="340" y="-440" width="100" height="50" as="geometry" />
        </mxCell>
        <mxCell id="rfeUKlEd_rAGPYUnDMAc-14" value="" style="rhombus;whiteSpace=wrap;html=1;" parent="1" vertex="1">
          <mxGeometry x="560" y="-437.5" width="110" height="45" as="geometry" />
        </mxCell>
        <mxCell id="rfeUKlEd_rAGPYUnDMAc-18" value="" style="endArrow=none;html=1;rounded=0;exitX=1;exitY=0.5;exitDx=0;exitDy=0;entryX=0;entryY=0.5;entryDx=0;entryDy=0;" parent="1" source="rfeUKlEd_rAGPYUnDMAc-6" target="rfeUKlEd_rAGPYUnDMAc-14" edge="1">
          <mxGeometry width="50" height="50" relative="1" as="geometry">
            <mxPoint x="290" y="-320" as="sourcePoint" />
            <mxPoint x="340" y="-370" as="targetPoint" />
          </mxGeometry>
        </mxCell>
        <mxCell id="rfeUKlEd_rAGPYUnDMAc-19" value="n" style="edgeLabel;html=1;align=center;verticalAlign=middle;resizable=0;points=[];" parent="rfeUKlEd_rAGPYUnDMAc-18" vertex="1" connectable="0">
          <mxGeometry x="0.0426" y="-1" relative="1" as="geometry">
            <mxPoint as="offset" />
          </mxGeometry>
        </mxCell>
        <mxCell id="rfeUKlEd_rAGPYUnDMAc-21" value="学生用户" style="rounded=0;whiteSpace=wrap;html=1;" parent="1" vertex="1">
          <mxGeometry x="340" y="-350" width="100" height="40" as="geometry" />
        </mxCell>
        <mxCell id="rfeUKlEd_rAGPYUnDMAc-23" value="教师" style="rounded=0;whiteSpace=wrap;html=1;" parent="1" vertex="1">
          <mxGeometry x="460" y="-350" width="100" height="40" as="geometry" />
        </mxCell>
        <mxCell id="rfeUKlEd_rAGPYUnDMAc-24" value="精品网课平台" style="rounded=0;whiteSpace=wrap;html=1;" parent="1" vertex="1">
          <mxGeometry x="395" y="-1130" width="135" height="30" as="geometry" />
        </mxCell>
        <mxCell id="rfeUKlEd_rAGPYUnDMAc-27" value="管理员模块" style="rounded=0;whiteSpace=wrap;html=1;" parent="1" vertex="1">
          <mxGeometry x="324" y="-1060" width="90" height="30" as="geometry" />
        </mxCell>
        <mxCell id="rfeUKlEd_rAGPYUnDMAc-28" value="用户模块" style="rounded=0;whiteSpace=wrap;html=1;" parent="1" vertex="1">
          <mxGeometry x="520" y="-1060" width="90" height="30" as="geometry" />
        </mxCell>
        <mxCell id="rfeUKlEd_rAGPYUnDMAc-30" value="教师信息管理" style="rounded=0;whiteSpace=wrap;html=1;" parent="1" vertex="1">
          <mxGeometry x="354" y="-1010" width="30" height="110" as="geometry" />
        </mxCell>
        <mxCell id="rfeUKlEd_rAGPYUnDMAc-31" value="网课信息管理" style="rounded=0;whiteSpace=wrap;html=1;" parent="1" vertex="1">
          <mxGeometry x="414" y="-1010" width="30" height="110" as="geometry" />
        </mxCell>
        <mxCell id="rfeUKlEd_rAGPYUnDMAc-33" value="课程点播" style="rounded=0;whiteSpace=wrap;html=1;" parent="1" vertex="1">
          <mxGeometry x="480" y="-1010" width="30" height="110" as="geometry" />
        </mxCell>
        <mxCell id="rfeUKlEd_rAGPYUnDMAc-35" value="课程分类展示" style="rounded=0;whiteSpace=wrap;html=1;" parent="1" vertex="1">
          <mxGeometry x="539" y="-1010" width="30" height="110" as="geometry" />
        </mxCell>
        <mxCell id="rfeUKlEd_rAGPYUnDMAc-36" value="" style="endArrow=none;html=1;rounded=0;entryX=0.5;entryY=1;entryDx=0;entryDy=0;exitX=0.5;exitY=0;exitDx=0;exitDy=0;" parent="1" source="rfeUKlEd_rAGPYUnDMAc-27" target="rfeUKlEd_rAGPYUnDMAc-24" edge="1">
          <mxGeometry width="50" height="50" relative="1" as="geometry">
            <mxPoint x="440" y="-970" as="sourcePoint" />
            <mxPoint x="490" y="-1020" as="targetPoint" />
          </mxGeometry>
        </mxCell>
        <mxCell id="rfeUKlEd_rAGPYUnDMAc-37" value="" style="endArrow=none;html=1;rounded=0;exitX=0.5;exitY=0;exitDx=0;exitDy=0;" parent="1" source="rfeUKlEd_rAGPYUnDMAc-28" edge="1">
          <mxGeometry width="50" height="50" relative="1" as="geometry">
            <mxPoint x="440" y="-970" as="sourcePoint" />
            <mxPoint x="460" y="-1100" as="targetPoint" />
          </mxGeometry>
        </mxCell>
        <mxCell id="rfeUKlEd_rAGPYUnDMAc-38" value="" style="endArrow=none;html=1;rounded=0;entryX=0.5;entryY=1;entryDx=0;entryDy=0;exitX=0.5;exitY=0;exitDx=0;exitDy=0;" parent="1" source="rfeUKlEd_rAGPYUnDMAc-30" target="rfeUKlEd_rAGPYUnDMAc-27" edge="1">
          <mxGeometry width="50" height="50" relative="1" as="geometry">
            <mxPoint x="430" y="-970" as="sourcePoint" />
            <mxPoint x="490" y="-1020" as="targetPoint" />
          </mxGeometry>
        </mxCell>
        <mxCell id="rfeUKlEd_rAGPYUnDMAc-39" value="" style="endArrow=none;html=1;rounded=0;entryX=0.5;entryY=1;entryDx=0;entryDy=0;exitX=0.5;exitY=0;exitDx=0;exitDy=0;" parent="1" source="rfeUKlEd_rAGPYUnDMAc-31" target="rfeUKlEd_rAGPYUnDMAc-27" edge="1">
          <mxGeometry width="50" height="50" relative="1" as="geometry">
            <mxPoint x="440" y="-970" as="sourcePoint" />
            <mxPoint x="490" y="-1020" as="targetPoint" />
          </mxGeometry>
        </mxCell>
        <mxCell id="rfeUKlEd_rAGPYUnDMAc-40" value="" style="endArrow=none;html=1;rounded=0;entryX=0.5;entryY=1;entryDx=0;entryDy=0;exitX=0.5;exitY=0;exitDx=0;exitDy=0;" parent="1" source="rfeUKlEd_rAGPYUnDMAc-33" target="rfeUKlEd_rAGPYUnDMAc-28" edge="1">
          <mxGeometry width="50" height="50" relative="1" as="geometry">
            <mxPoint x="520" y="-1010" as="sourcePoint" />
            <mxPoint x="490" y="-1020" as="targetPoint" />
          </mxGeometry>
        </mxCell>
        <mxCell id="rfeUKlEd_rAGPYUnDMAc-41" value="" style="endArrow=none;html=1;rounded=0;entryX=0.5;entryY=1;entryDx=0;entryDy=0;exitX=0.5;exitY=0;exitDx=0;exitDy=0;" parent="1" source="rfeUKlEd_rAGPYUnDMAc-35" target="rfeUKlEd_rAGPYUnDMAc-28" edge="1">
          <mxGeometry width="50" height="50" relative="1" as="geometry">
            <mxPoint x="440" y="-970" as="sourcePoint" />
            <mxPoint x="490" y="-1020" as="targetPoint" />
          </mxGeometry>
        </mxCell>
        <mxCell id="rfeUKlEd_rAGPYUnDMAc-43" value="教师信息查询" style="rounded=0;whiteSpace=wrap;html=1;" parent="1" vertex="1">
          <mxGeometry x="595" y="-1010" width="30" height="110" as="geometry" />
        </mxCell>
        <mxCell id="rfeUKlEd_rAGPYUnDMAc-44" value="" style="endArrow=none;html=1;rounded=0;exitX=0.5;exitY=0;exitDx=0;exitDy=0;" parent="1" source="rfeUKlEd_rAGPYUnDMAc-43" edge="1">
          <mxGeometry width="50" height="50" relative="1" as="geometry">
            <mxPoint x="440" y="-980" as="sourcePoint" />
            <mxPoint x="560" y="-1030" as="targetPoint" />
            <Array as="points">
              <mxPoint x="570" y="-1030" />
            </Array>
          </mxGeometry>
        </mxCell>
        <mxCell id="W0MdVWq_tzxXm_2pHEH8-1" value="登陆" style="rounded=0;whiteSpace=wrap;html=1;" vertex="1" parent="1">
          <mxGeometry x="300" y="-1010" width="30" height="110" as="geometry" />
        </mxCell>
        <mxCell id="W0MdVWq_tzxXm_2pHEH8-2" value="" style="endArrow=none;html=1;rounded=0;exitX=0.5;exitY=0;exitDx=0;exitDy=0;" edge="1" parent="1" source="W0MdVWq_tzxXm_2pHEH8-1">
          <mxGeometry width="50" height="50" relative="1" as="geometry">
            <mxPoint x="379" y="-1000" as="sourcePoint" />
            <mxPoint x="370" y="-1030" as="targetPoint" />
          </mxGeometry>
        </mxCell>
        <mxCell id="W0MdVWq_tzxXm_2pHEH8-3" value="登陆注册" style="rounded=0;whiteSpace=wrap;html=1;" vertex="1" parent="1">
          <mxGeometry x="651" y="-1010" width="30" height="110" as="geometry" />
        </mxCell>
        <mxCell id="W0MdVWq_tzxXm_2pHEH8-6" value="" style="endArrow=none;html=1;rounded=0;exitX=0.5;exitY=0;exitDx=0;exitDy=0;" edge="1" parent="1" source="W0MdVWq_tzxXm_2pHEH8-3">
          <mxGeometry width="50" height="50" relative="1" as="geometry">
            <mxPoint x="439" y="-1000" as="sourcePoint" />
            <mxPoint x="569" y="-1031" as="targetPoint" />
          </mxGeometry>
        </mxCell>
      </root>
    </mxGraphModel>
  </diagram>
</mxfile>
